<svg width="56" height="57" viewBox="0 0 56 57" fill="none" xmlns="http://www.w3.org/2000/svg">
<path d="M25.6614 6.18759C26.0781 5.97354 26.5627 5.93379 27.0087 6.07708C27.4547 6.22036 27.8255 6.53495 28.0396 6.95164L31.5369 13.7598L35.2028 11.8766C37.0084 10.9491 39.1085 10.7768 41.0412 11.3977C42.9738 12.0186 44.5807 13.3818 45.5082 15.1875L52.5027 28.8037C53.4303 30.6094 53.6025 32.7095 52.9816 34.6421C52.3607 36.5748 50.9975 38.1816 49.1919 39.1091L25.1016 51.4841C23.2959 52.4117 21.1958 52.5839 19.2632 51.963C17.3305 51.3421 15.7237 49.9789 14.7962 48.1733L7.80161 34.557C6.87408 32.7514 6.70182 30.6512 7.32272 28.7186C7.94363 26.786 9.30684 25.1791 11.1125 24.2516L14.7784 22.3684L11.2811 15.5603C11.0861 15.1806 11.0352 14.7432 11.1377 14.3289C11.2403 13.9146 11.4894 13.5514 11.839 13.3066L12.0452 13.1821L25.6614 6.18759ZM25.7044 10.1369L15.2304 15.5173L17.9206 20.7543L28.3947 15.3739L25.7044 10.1369Z" fill="white"/>
<path d="M36.2354 18.7061C37.8824 18.7061 39.5295 18.7061 39.5295 14.8237C39.5295 16.1178 39.5295 18.7061 42.8236 18.7061C41.5883 18.7061 39.5295 18.7061 39.5295 22.2355C39.5295 21.059 39.5295 18.7061 36.2354 18.7061Z" fill="#16213D"/>
<path d="M42 22.7452C42.8235 22.7452 43.6471 22.7452 43.6471 20.5884C43.6471 21.3073 43.6471 22.7452 45.2941 22.7452C44.6765 22.7452 43.6471 22.7452 43.6471 24.706C43.6471 24.0524 43.6471 22.7452 42 22.7452Z" fill="#16213D"/>
<path fill-rule="evenodd" clip-rule="evenodd" d="M29.8821 53.6714C29.207 53.8244 28.5207 53.889 27.8397 53.8676C28.4603 53.1484 29.0436 52.305 29.4906 51.343C30.6605 48.8248 30.9431 45.3982 28.2883 41.0518C28.0596 40.7576 27.7752 40.5455 27.4116 40.4284C27.0303 40.3057 26.5114 40.2717 25.8054 40.4266C25.5081 40.4919 25.2406 40.5561 24.9749 40.6689C24.1647 41.0127 23.499 41.3927 22.959 41.7856C22.8784 42.2402 22.9417 42.4487 22.9896 42.5268C23.0183 42.5735 23.1254 42.7102 23.6136 42.7278C24.0275 42.7427 24.351 43.0904 24.3361 43.5044C24.3211 43.9183 23.9735 44.2418 23.5595 44.2268C22.8292 44.2005 22.1143 43.9684 21.7111 43.3112C21.668 43.2409 21.6303 43.1686 21.5976 43.0945C21.1347 43.7033 20.8748 44.3132 20.7651 44.86C20.581 45.7787 20.821 46.4663 21.1531 46.7971C21.3129 46.9563 21.5041 47.0482 21.7269 47.0669C21.9546 47.0861 22.2655 47.0322 22.6543 46.8104C23.4486 46.3572 24.4781 45.2493 25.5171 43.0513C25.6941 42.6768 26.1412 42.5168 26.5157 42.6938C26.8901 42.8708 27.0502 43.3179 26.8732 43.6924C25.775 46.0157 24.5759 47.441 23.3976 48.1133C22.8 48.4542 22.1885 48.6111 21.601 48.5616C21.0086 48.5118 20.492 48.2556 20.0946 47.8599C19.3123 47.0808 19.0407 45.8311 19.2944 44.5652C19.5527 43.2768 20.3567 41.9105 21.8225 40.7643C22.5131 40.2242 23.3633 39.7234 24.3888 39.2881C24.5364 39.2254 24.6816 39.1739 24.8212 39.1305C24.7634 38.4903 24.7665 37.8866 24.8245 37.3184C23.8295 38.0658 22.6865 38.7392 21.5104 39.1212C21.2958 39.3363 21.1654 39.5208 21.0942 39.7085C21.0168 39.9123 20.9818 40.1932 21.0997 40.6401C21.2054 41.0406 20.9664 41.4509 20.5659 41.5566C20.1654 41.6623 19.755 41.4233 19.6493 41.0228C19.4975 40.4473 19.4833 39.9283 19.6045 39.4525C18.894 39.4584 18.1819 39.3188 17.5034 38.973C17.1956 38.8161 16.9034 38.6213 16.6279 38.3873C16.6146 38.4084 16.6016 38.4295 16.589 38.4506C16.2408 39.0337 16.1339 39.656 16.3461 40.3705C16.5677 41.1165 17.1564 42.0231 18.3333 43.0846C18.6409 43.362 18.6654 43.8362 18.388 44.1438C18.1105 44.4514 17.6363 44.4759 17.3287 44.1984C16.0411 43.0372 15.2379 41.9077 14.9082 40.7975C14.5691 39.6559 14.7516 38.6018 15.3011 37.6816C15.3941 37.5259 15.497 37.3749 15.6089 37.2283C15.2246 36.6557 14.8909 35.9686 14.6124 35.1615C14.4773 34.77 14.6852 34.343 15.0768 34.2079C15.4683 34.0728 15.8953 34.2807 16.0304 34.6723C16.2305 35.2524 16.4534 35.7349 16.6913 36.1348C17.0029 35.8829 17.34 35.648 17.6939 35.4291C18.1574 35.1425 18.6596 34.8771 19.1877 34.632C19.1618 34.6211 19.136 34.6102 19.1101 34.5992C18.3778 34.2869 17.5275 33.839 17.0494 33.2481C16.7888 32.9261 16.8387 32.4538 17.1607 32.1933C17.4827 31.9328 17.955 31.9826 18.2155 32.3046C18.4408 32.5831 18.9799 32.9129 19.6986 33.2194C20.2817 33.4681 20.8899 33.6635 21.3307 33.7832C21.7002 33.6578 22.0752 33.5398 22.4524 33.4291L22.4383 33.4232C21.5638 33.0586 20.6493 32.5663 19.9219 31.9254C19.6449 31.9063 19.3118 31.8571 18.9821 31.7595C18.537 31.6278 17.9477 31.3635 17.6094 30.812C17.3927 30.459 17.5034 29.9971 17.8564 29.7805C18.0754 29.6462 18.3361 29.6377 18.5543 29.7348C18.5271 29.5991 18.5083 29.4596 18.4988 29.3163C18.4716 28.9029 18.7845 28.5458 19.1979 28.5185C19.6112 28.4913 19.9683 28.8042 19.9956 29.2176C20.0283 29.7139 20.2816 30.1894 20.751 30.6492C21.3171 31.2036 22.1369 31.6725 23.0154 32.0386C23.8221 32.3749 24.6344 32.6066 25.255 32.7363C26.0399 32.5756 26.8031 32.4454 27.5153 32.345C28.5203 31.5376 29.6982 30.9845 30.8785 30.6268C30.8245 30.2459 30.7037 29.8774 30.5285 29.5265C29.581 28.9082 27.771 28.3818 26.16 29.6509C25.8322 29.9092 25.2574 30.5879 25.0831 31.31C24.9859 31.7126 24.5807 31.9602 24.178 31.863C23.7754 31.7658 23.5278 31.3606 23.625 30.958C23.6965 30.6617 23.8052 30.3783 23.9359 30.1142C23.6472 30.1287 23.3517 30.1287 23.0707 30.1058C22.7344 30.0784 22.3677 30.0146 22.0517 29.869C21.6756 29.6956 21.5112 29.2501 21.6846 28.8739C21.858 28.4977 22.3035 28.3334 22.6797 28.5068C22.766 28.5465 22.9332 28.5896 23.1925 28.6107C23.4413 28.631 23.7294 28.6277 24.027 28.6057C24.5637 28.566 25.0608 28.4713 25.341 28.3887C26.3657 27.62 27.4316 27.3556 28.4078 27.3709C27.7196 26.9743 26.9463 26.7042 26.1601 26.6038C25.2316 26.4853 24.3009 26.605 23.4677 27.0133C23.0957 27.1955 22.6464 27.0417 22.4642 26.6698C22.2819 26.2978 22.4357 25.8485 22.8077 25.6663C23.5453 25.3048 24.3257 25.1169 25.1058 25.0714C25.062 24.8676 25.0277 24.6508 25.0024 24.4266C24.9561 24.015 25.2522 23.6437 25.6638 23.5974C26.0754 23.551 26.4466 23.8471 26.493 24.2587C26.5307 24.5935 26.5891 24.8678 26.6548 25.0662C26.6679 25.1059 26.6804 25.1396 26.6918 25.168C27.2902 25.2741 27.875 25.4559 28.4279 25.701C28.2472 25.1448 28.0588 24.6731 27.9375 24.4754C27.7209 24.1223 27.8315 23.6605 28.1846 23.4439C28.5377 23.2273 28.9995 23.3379 29.2161 23.6909C29.4641 24.0952 29.7336 24.8389 29.9321 25.4827C30.036 25.8195 30.1289 26.1572 30.1975 26.4505C30.2294 26.5871 30.2597 26.729 30.2826 26.8642C30.4357 26.9947 30.5831 27.1314 30.7238 27.2739C30.7848 27.0669 30.8532 26.8544 30.9294 26.6408C31.2376 25.7774 31.7025 24.8116 32.3842 24.1325C32.6776 23.8401 33.1525 23.8411 33.4449 24.1345C33.7372 24.4279 33.7363 24.9028 33.4428 25.1952C32.9952 25.6411 32.6224 26.3597 32.3422 27.1449C32.1098 27.7961 31.9611 28.4354 31.8846 28.8852C32.1021 29.3274 32.2582 29.7946 32.3413 30.2775C32.6483 30.2228 32.9504 30.1803 33.2444 30.1488C34.4244 30.0222 35.4384 30.2163 36.2452 30.663C36.6348 29.9792 36.8747 29.2644 37.0016 28.5908C36.7981 28.2826 36.4736 27.8519 36.0298 27.534C35.5019 27.156 34.809 26.9327 33.85 27.3683C33.4728 27.5397 33.0282 27.3728 32.8569 26.9957C32.6856 26.6186 32.8525 26.174 33.2296 26.0026C34.465 25.4414 35.5254 25.5761 36.3562 25.9857C36.0045 25.45 35.5352 24.9536 34.984 24.5442C34.6514 24.2973 34.582 23.8275 34.829 23.495C35.0759 23.1624 35.5457 23.093 35.8783 23.34C37.4651 24.5183 38.7286 26.4717 38.5352 28.503C38.534 28.5158 38.5325 28.5285 38.5306 28.5412C38.3855 29.5271 38.0407 30.6201 37.4032 31.6506C37.5119 31.791 37.6096 31.938 37.6961 32.0903C37.8338 31.9664 37.9727 31.8293 38.1072 31.6803C38.519 31.2241 38.9297 30.6492 39.1622 30.0354C39.3909 29.4316 39.435 28.8294 39.1878 28.2467C39.0261 27.8653 39.2042 27.4251 39.5855 27.2634C39.9669 27.1017 40.4071 27.2798 40.5688 27.6611C41.0057 28.6913 40.8905 29.7073 40.565 30.5667C40.4001 31.0019 40.1784 31.4066 39.9362 31.7699C41.209 32.3471 41.9298 33.5217 41.9045 34.7902C41.8723 36.4134 40.6371 37.9133 38.4221 38.3685C38.0164 38.4519 37.6199 38.1906 37.5365 37.7849C37.4531 37.3791 37.7144 36.9826 38.1201 36.8992C39.7848 36.5572 40.3891 35.5528 40.4048 34.7604C40.4192 34.0403 39.9625 33.2681 38.9222 32.9962C38.6736 33.2397 38.4199 33.4527 38.179 33.6309C38.3928 35.8271 36.8035 38.1778 33.6429 38.5168C31.5874 38.7372 30.7007 39.2301 30.2839 39.6297C29.9712 39.9295 29.8845 40.1698 29.7727 40.4798L29.7431 40.5614C32.4622 45.1858 32.2138 49.0415 30.851 51.975C30.5678 52.5844 30.2386 53.15 29.8821 53.6714ZM33.4044 31.6402C33.0605 31.6771 32.7088 31.7304 32.3548 31.8014C32.2487 32.4847 31.9875 33.1794 31.5427 33.8629L31.5127 33.9091C33.2379 33.5327 34.4457 32.796 35.2837 31.9398C35.3017 31.9214 35.3195 31.9029 35.3373 31.8844C34.8571 31.6669 34.2205 31.5527 33.4044 31.6402ZM36.3557 32.9891C35.0792 34.2932 33.2042 35.2828 30.5655 35.5822C30.0741 36.5956 29.7966 37.4809 29.651 38.2114C30.4335 37.6504 31.6249 37.2246 33.4829 37.0253C36.0614 36.7488 36.9575 34.843 36.6323 33.4493C36.5883 33.2605 36.522 33.0788 36.4337 32.9082C36.4079 32.9352 36.3819 32.9622 36.3557 32.9891ZM29.4156 34.5302C28.4833 36.3227 28.1042 37.8765 28.0265 39.0548C27.9757 39.0356 27.9239 39.0175 27.8712 39.0006C27.3975 38.8481 26.874 38.7936 26.3022 38.8379C26.2001 37.4382 26.4469 36.3164 26.8969 35.4164C27.2488 34.7128 27.7357 34.1225 28.3146 33.6303C29.0044 33.0438 29.8225 32.599 30.6823 32.276C30.5842 32.5306 30.453 32.7873 30.2855 33.0446C29.9524 33.5565 29.6641 34.0524 29.4156 34.5302ZM20.9036 37.7393C22.6375 37.2214 24.4188 35.8587 25.6094 34.6397C25.6998 34.4664 25.7965 34.299 25.899 34.1373C25.7373 34.1688 25.5745 34.2016 25.4107 34.2359C24.1469 34.5001 22.8354 34.8455 21.6083 35.274C20.4391 35.6823 19.3635 36.1603 18.4829 36.7048C18.1763 36.8945 17.8987 37.0889 17.6517 37.2873C17.8278 37.4308 18.0062 37.5457 18.1845 37.6365C18.9685 38.0361 19.8913 38.0417 20.9036 37.7393Z" fill="#16213D"/>
</svg>
