<svg width="175" height="57" viewBox="0 0 175 57" fill="none" xmlns="http://www.w3.org/2000/svg">
<path d="M25.6614 6.18748C26.0781 5.97344 26.5627 5.93369 27.0087 6.07697C27.4547 6.22026 27.8255 6.53484 28.0396 6.95153L31.5369 13.7597L35.2028 11.8765C37.0084 10.949 39.1085 10.7767 41.0412 11.3976C42.9738 12.0185 44.5807 13.3817 45.5082 15.1874L52.5027 28.8036C53.4303 30.6093 53.6025 32.7094 52.9816 34.642C52.3607 36.5747 50.9975 38.1815 49.1919 39.109L25.1016 51.484C23.2959 52.4115 21.1958 52.5838 19.2632 51.9629C17.3305 51.342 15.7237 49.9788 14.7962 48.1732L7.80161 34.5569C6.87408 32.7513 6.70182 30.6511 7.32272 28.7185C7.94363 26.7859 9.30684 25.179 11.1125 24.2515L14.7784 22.3683L11.2811 15.5602C11.0861 15.1805 11.0352 14.7431 11.1377 14.3288C11.2403 13.9145 11.4894 13.5513 11.839 13.3065L12.0452 13.182L25.6614 6.18748ZM25.7044 10.1368L15.2304 15.5172L17.9206 20.7542L28.3947 15.3738L25.7044 10.1368Z" fill="#3F75FF"/>
<path d="M36.2354 18.706C37.8824 18.706 39.5295 18.706 39.5295 14.8236C39.5295 16.1177 39.5295 18.706 42.8236 18.706C41.5883 18.706 39.5295 18.706 39.5295 22.2354C39.5295 21.0589 39.5295 18.706 36.2354 18.706Z" fill="white"/>
<path d="M42 22.7451C42.8235 22.7451 43.6471 22.7451 43.6471 20.5883C43.6471 21.3072 43.6471 22.7451 45.2941 22.7451C44.6765 22.7451 43.6471 22.7451 43.6471 24.7059C43.6471 24.0523 43.6471 22.7451 42 22.7451Z" fill="white"/>
<path fill-rule="evenodd" clip-rule="evenodd" d="M29.8821 53.6715C29.207 53.8245 28.5207 53.8891 27.8397 53.8677C28.4603 53.1485 29.0436 52.3052 29.4906 51.3431C30.6605 48.8249 30.9431 45.3983 28.2883 41.0519C28.0596 40.7577 27.7752 40.5456 27.4116 40.4285C27.0303 40.3058 26.5114 40.2718 25.8054 40.4267C25.5081 40.492 25.2406 40.5562 24.9749 40.669C24.1647 41.0129 23.4991 41.3928 22.959 41.7858C22.8784 42.2403 22.9417 42.4488 22.9896 42.5269C23.0183 42.5736 23.1254 42.7103 23.6136 42.7279C24.0275 42.7429 24.351 43.0905 24.3361 43.5045C24.3211 43.9184 23.9735 44.2419 23.5595 44.227C22.8292 44.2006 22.1143 43.9686 21.7111 43.3113C21.668 43.241 21.6303 43.1687 21.5976 43.0946C21.1348 43.7035 20.8748 44.3134 20.7651 44.8602C20.581 45.7788 20.821 46.4665 21.1531 46.7972C21.3129 46.9564 21.5041 47.0483 21.7269 47.067C21.9546 47.0862 22.2655 47.0323 22.6543 46.8105C23.4486 46.3573 24.4781 45.2494 25.5171 43.0514C25.6941 42.677 26.1412 42.5169 26.5157 42.6939C26.8901 42.8709 27.0502 43.318 26.8732 43.6925C25.775 46.0158 24.5759 47.4411 23.3976 48.1134C22.8 48.4543 22.1885 48.6112 21.601 48.5617C21.0086 48.5119 20.492 48.2557 20.0946 47.86C19.3124 47.0809 19.0407 45.8312 19.2944 44.5654C19.5527 43.2769 20.3567 41.9106 21.8225 40.7644C22.5131 40.2243 23.3633 39.7235 24.3888 39.2882C24.5364 39.2256 24.6816 39.174 24.8212 39.1306C24.7634 38.4905 24.7665 37.8867 24.8245 37.3185C23.8295 38.066 22.6865 38.7393 21.5104 39.1213C21.2958 39.3364 21.1654 39.5209 21.0942 39.7086C21.0168 39.9124 20.9818 40.1933 21.0997 40.6402C21.2054 41.0407 20.9664 41.4511 20.5659 41.5567C20.1654 41.6624 19.755 41.4234 19.6493 41.0229C19.4975 40.4474 19.4833 39.9284 19.6045 39.4526C18.894 39.4585 18.1819 39.3189 17.5034 38.9731C17.1956 38.8163 16.9034 38.6214 16.6279 38.3874C16.6146 38.4085 16.6016 38.4296 16.589 38.4507C16.2408 39.0339 16.1339 39.6561 16.3461 40.3706C16.5677 41.1166 17.1564 42.0232 18.3333 43.0847C18.6409 43.3621 18.6654 43.8364 18.388 44.1439C18.1105 44.4515 17.6363 44.476 17.3287 44.1986C16.0411 43.0373 15.2379 41.9078 14.9082 40.7977C14.5691 39.656 14.7516 38.6019 15.3011 37.6817C15.3941 37.526 15.497 37.375 15.6089 37.2284C15.2246 36.6558 14.8909 35.9687 14.6124 35.1616C14.4773 34.7701 14.6852 34.3431 15.0768 34.208C15.4683 34.0729 15.8953 34.2808 16.0304 34.6724C16.2305 35.2525 16.4534 35.735 16.6913 36.135C17.0029 35.883 17.34 35.6481 17.6939 35.4292C18.1574 35.1426 18.6596 34.8772 19.1877 34.6321C19.1618 34.6213 19.136 34.6103 19.1101 34.5993C18.3779 34.287 17.5275 33.8391 17.0494 33.2482C16.7888 32.9262 16.8387 32.4539 17.1607 32.1934C17.4827 31.9329 17.955 31.9827 18.2155 32.3047C18.4408 32.5832 18.9799 32.913 19.6986 33.2196C20.2817 33.4682 20.89 33.6636 21.3307 33.7833C21.7002 33.6579 22.0752 33.5399 22.4524 33.4292L22.4383 33.4233C21.5638 33.0588 20.6493 32.5665 19.9219 31.9255C19.6449 31.9064 19.3118 31.8572 18.9821 31.7596C18.537 31.6279 17.9477 31.3636 17.6094 30.8121C17.3928 30.4591 17.5034 29.9973 17.8564 29.7806C18.0754 29.6463 18.3361 29.6378 18.5543 29.7349C18.5271 29.5992 18.5083 29.4597 18.4988 29.3164C18.4716 28.9031 18.7845 28.5459 19.1979 28.5187C19.6112 28.4914 19.9683 28.8044 19.9956 29.2177C20.0283 29.714 20.2816 30.1895 20.751 30.6493C21.3171 31.2038 22.1369 31.6726 23.0154 32.0387C23.8221 32.375 24.6344 32.6067 25.255 32.7364C26.0399 32.5757 26.8031 32.4456 27.5153 32.3452C28.5203 31.5377 29.6982 30.9846 30.8785 30.6269C30.8245 30.246 30.7037 29.8775 30.5285 29.5266C29.581 28.9083 27.771 28.3819 26.16 29.651C25.8322 29.9093 25.2574 30.588 25.0831 31.3101C24.9859 31.7127 24.5807 31.9604 24.178 31.8632C23.7754 31.7659 23.5278 31.3607 23.625 30.9581C23.6965 30.6618 23.8052 30.3784 23.9359 30.1143C23.6472 30.1289 23.3517 30.1288 23.0707 30.1059C22.7344 30.0785 22.3677 30.0147 22.0517 29.8691C21.6756 29.6957 21.5112 29.2502 21.6846 28.874C21.858 28.4979 22.3035 28.3335 22.6797 28.5069C22.766 28.5467 22.9332 28.5897 23.1925 28.6109C23.4413 28.6311 23.7294 28.6278 24.027 28.6058C24.5637 28.5661 25.0608 28.4714 25.341 28.3888C26.3657 27.6201 27.4316 27.3557 28.4078 27.371C27.7196 26.9744 26.9463 26.7043 26.1601 26.604C25.2316 26.4855 24.3009 26.6051 23.4677 27.0134C23.0957 27.1956 22.6464 27.0418 22.4642 26.6699C22.2819 26.2979 22.4357 25.8486 22.8077 25.6664C23.5453 25.305 24.3257 25.117 25.1058 25.0716C25.062 24.8677 25.0277 24.6509 25.0024 24.4267C24.9561 24.0151 25.2522 23.6439 25.6638 23.5975C26.0754 23.5511 26.4466 23.8472 26.493 24.2589C26.5307 24.5936 26.5891 24.8679 26.6548 25.0663C26.6679 25.106 26.6804 25.1397 26.6918 25.1681C27.2902 25.2742 27.875 25.456 28.4279 25.7011C28.2472 25.1449 28.0588 24.6732 27.9375 24.4755C27.7209 24.1224 27.8315 23.6606 28.1846 23.444C28.5377 23.2274 28.9995 23.338 29.2161 23.6911C29.4641 24.0953 29.7336 24.839 29.9321 25.4828C30.036 25.8196 30.1289 26.1573 30.1975 26.4506C30.2294 26.5872 30.2597 26.7291 30.2826 26.8643C30.4357 26.9949 30.5831 27.1316 30.7238 27.274C30.7848 27.067 30.8532 26.8545 30.9294 26.6409C31.2376 25.7776 31.7025 24.8117 32.3842 24.1326C32.6776 23.8403 33.1525 23.8412 33.4449 24.1346C33.7372 24.4281 33.7363 24.9029 33.4428 25.1953C32.9952 25.6412 32.6224 26.3599 32.3422 27.1451C32.1098 27.7962 31.9611 28.4355 31.8846 28.8853C32.1021 29.3275 32.2582 29.7947 32.3413 30.2776C32.6483 30.2229 32.9504 30.1804 33.2444 30.1489C34.4244 30.0223 35.4384 30.2164 36.2452 30.6631C36.6348 29.9793 36.8747 29.2645 37.0016 28.5909C36.7981 28.2827 36.4736 27.852 36.0298 27.5341C35.5019 27.1561 34.809 26.9328 33.85 27.3685C33.4728 27.5398 33.0282 27.3729 32.8569 26.9958C32.6856 26.6187 32.8525 26.1741 33.2296 26.0028C34.465 25.4416 35.5254 25.5762 36.3562 25.9858C36.0045 25.4501 35.5352 24.9537 34.984 24.5443C34.6514 24.2974 34.582 23.8276 34.829 23.4951C35.0759 23.1625 35.5457 23.0931 35.8783 23.3401C37.4651 24.5184 38.7286 26.4719 38.5352 28.5031C38.534 28.5159 38.5325 28.5286 38.5306 28.5413C38.3855 29.5272 38.0407 30.6202 37.4032 31.6507C37.5119 31.7911 37.6096 31.9381 37.6961 32.0904C37.8338 31.9665 37.9727 31.8294 38.1072 31.6804C38.519 31.2242 38.9297 30.6493 39.1622 30.0355C39.3909 29.4318 39.435 28.8296 39.1878 28.2468C39.0261 27.8655 39.2042 27.4252 39.5855 27.2635C39.9669 27.1018 40.4071 27.2799 40.5688 27.6612C41.0057 28.6915 40.8905 29.7074 40.565 30.5668C40.4001 31.002 40.1784 31.4067 39.9362 31.77C41.209 32.3472 41.9298 33.5218 41.9045 34.7903C41.8723 36.4135 40.6371 37.9134 38.4221 38.3687C38.0164 38.452 37.6199 38.1907 37.5365 37.785C37.4531 37.3792 37.7144 36.9827 38.1201 36.8994C39.7848 36.5573 40.3891 35.5529 40.4048 34.7605C40.4192 34.0404 39.9625 33.2682 38.9222 32.9963C38.6736 33.2399 38.4199 33.4528 38.179 33.631C38.3928 35.8272 36.8035 38.1779 33.6429 38.5169C31.5874 38.7373 30.7007 39.2302 30.2839 39.6298C29.9712 39.9296 29.8845 40.1699 29.7727 40.4799L29.7431 40.5616C32.4622 45.1859 32.2138 49.0417 30.851 51.9751C30.5678 52.5845 30.2386 53.1501 29.8821 53.6715ZM33.4044 31.6403C33.0605 31.6772 32.7088 31.7305 32.3548 31.8015C32.2487 32.4848 31.9875 33.1796 31.5427 33.863L31.5127 33.9092C33.2379 33.5328 34.4457 32.7961 35.2837 31.9399C35.3017 31.9215 35.3195 31.9031 35.3373 31.8845C34.8571 31.667 34.2205 31.5528 33.4044 31.6403ZM36.3557 32.9892C35.0792 34.2933 33.2042 35.2829 30.5655 35.5823C30.0741 36.5958 29.7966 37.4811 29.651 38.2115C30.4335 37.6505 31.6249 37.2247 33.4829 37.0254C36.0614 36.7489 36.9575 34.8431 36.6323 33.4495C36.5883 33.2606 36.522 33.079 36.4337 32.9083C36.4079 32.9353 36.3819 32.9623 36.3557 32.9892ZM29.4156 34.5303C28.4833 36.3228 28.1042 37.8766 28.0265 39.0549C27.9757 39.0357 27.9239 39.0176 27.8712 39.0007C27.3975 38.8482 26.874 38.7937 26.3022 38.838C26.2001 37.4383 26.4469 36.3165 26.8969 35.4165C27.2488 34.713 27.7357 34.1227 28.3146 33.6304C29.0044 33.0439 29.8225 32.5991 30.6823 32.2761C30.5842 32.5308 30.453 32.7874 30.2855 33.0447C29.9524 33.5566 29.6641 34.0525 29.4156 34.5303ZM20.9036 37.7394C22.6375 37.2215 24.4188 35.8588 25.6094 34.6398C25.6998 34.4665 25.7965 34.2991 25.899 34.1374C25.7373 34.1689 25.5745 34.2017 25.4107 34.236C24.1469 34.5002 22.8354 34.8456 21.6083 35.2741C20.4391 35.6824 19.3635 36.1604 18.4829 36.705C18.1763 36.8946 17.8987 37.089 17.6517 37.2874C17.8278 37.4309 18.0062 37.5458 18.1845 37.6366C18.9685 38.0362 19.8913 38.0418 20.9036 37.7394Z" fill="white"/>
<path d="M84.576 27.464C86.24 27.464 87.56 27.968 88.536 28.976C89.528 29.984 90.024 31.384 90.024 33.176V41H85.944V33.728C85.944 32.864 85.712 32.2 85.248 31.736C84.8 31.256 84.176 31.016 83.376 31.016C82.576 31.016 81.944 31.256 81.48 31.736C81.032 32.2 80.808 32.864 80.808 33.728V41H76.728V33.728C76.728 32.864 76.496 32.2 76.032 31.736C75.584 31.256 74.96 31.016 74.16 31.016C73.36 31.016 72.728 31.256 72.264 31.736C71.816 32.2 71.592 32.864 71.592 33.728V41H67.488V27.608H71.592V29.288C72.008 28.728 72.552 28.288 73.224 27.968C73.896 27.632 74.656 27.464 75.504 27.464C76.512 27.464 77.408 27.68 78.192 28.112C78.992 28.544 79.616 29.16 80.064 29.96C80.528 29.224 81.16 28.624 81.96 28.16C82.76 27.696 83.632 27.464 84.576 27.464ZM94.9583 26.216C94.2383 26.216 93.6463 26.008 93.1823 25.592C92.7343 25.16 92.5103 24.632 92.5103 24.008C92.5103 23.368 92.7343 22.84 93.1823 22.424C93.6463 21.992 94.2383 21.776 94.9583 21.776C95.6623 21.776 96.2383 21.992 96.6863 22.424C97.1503 22.84 97.3823 23.368 97.3823 24.008C97.3823 24.632 97.1503 25.16 96.6863 25.592C96.2383 26.008 95.6623 26.216 94.9583 26.216ZM96.9983 27.608V41H92.8943V27.608H96.9983ZM108.132 27.464C109.7 27.464 110.948 27.976 111.876 29C112.82 30.008 113.292 31.4 113.292 33.176V41H109.212V33.728C109.212 32.832 108.98 32.136 108.516 31.64C108.052 31.144 107.428 30.896 106.644 30.896C105.86 30.896 105.236 31.144 104.772 31.64C104.308 32.136 104.076 32.832 104.076 33.728V41H99.9724V27.608H104.076V29.384C104.492 28.792 105.052 28.328 105.756 27.992C106.46 27.64 107.252 27.464 108.132 27.464ZM115.328 34.28C115.328 32.904 115.584 31.696 116.096 30.656C116.624 29.616 117.336 28.816 118.232 28.256C119.128 27.696 120.128 27.416 121.232 27.416C122.112 27.416 122.912 27.6 123.632 27.968C124.368 28.336 124.944 28.832 125.36 29.456V23.24H129.464V41H125.36V39.08C124.976 39.72 124.424 40.232 123.704 40.616C123 41 122.176 41.192 121.232 41.192C120.128 41.192 119.128 40.912 118.232 40.352C117.336 39.776 116.624 38.968 116.096 37.928C115.584 36.872 115.328 35.656 115.328 34.28ZM125.36 34.304C125.36 33.28 125.072 32.472 124.496 31.88C123.936 31.288 123.248 30.992 122.432 30.992C121.616 30.992 120.92 31.288 120.344 31.88C119.784 32.456 119.504 33.256 119.504 34.28C119.504 35.304 119.784 36.12 120.344 36.728C120.92 37.32 121.616 37.616 122.432 37.616C123.248 37.616 123.936 37.32 124.496 36.728C125.072 36.136 125.36 35.328 125.36 34.304ZM143.401 24.152V27.44H136.537V30.992H141.673V34.184H136.537V41H132.433V24.152H143.401ZM158.782 27.608V41H154.678V39.176C154.262 39.768 153.694 40.248 152.974 40.616C152.27 40.968 151.486 41.144 150.622 41.144C149.598 41.144 148.694 40.92 147.91 40.472C147.126 40.008 146.518 39.344 146.086 38.48C145.654 37.616 145.438 36.6 145.438 35.432V27.608H149.518V34.88C149.518 35.776 149.75 36.472 150.214 36.968C150.678 37.464 151.302 37.712 152.086 37.712C152.886 37.712 153.518 37.464 153.982 36.968C154.446 36.472 154.678 35.776 154.678 34.88V27.608H158.782ZM165.834 23.24V41H161.73V23.24H165.834ZM172.912 23.24V41H168.808V23.24H172.912Z" fill="#3F75FF"/>
</svg>
